<svg width="38" height="26" viewBox="0 0 38 26" fill="none" xmlns="http://www.w3.org/2000/svg">
<path d="M14.4218 1.57988C14.2359 1.39242 14.0147 1.24363 13.771 1.1421C13.5273 1.04056 13.2659 0.988281 13.0018 0.988281C12.7378 0.988281 12.4764 1.04056 12.2327 1.1421C11.989 1.24363 11.7678 1.39242 11.5818 1.57988L1.58183 11.5799C1.39437 11.7658 1.24559 11.987 1.14405 12.2307C1.04251 12.4744 0.990234 12.7359 0.990234 12.9999C0.990234 13.2639 1.04251 13.5253 1.14405 13.769C1.24559 14.0127 1.39437 14.234 1.58183 14.4199L11.5818 24.4199C11.7678 24.6073 11.989 24.7561 12.2327 24.8577C12.4764 24.9592 12.7378 25.0115 13.0018 25.0115C13.2659 25.0115 13.5273 24.9592 13.771 24.8577C14.0147 24.7561 14.2359 24.6073 14.4218 24.4199C14.6093 24.2339 14.7581 24.0128 14.8596 23.769C14.9612 23.5253 15.0134 23.2639 15.0134 22.9999C15.0134 22.7359 14.9612 22.4744 14.8596 22.2307C14.7581 21.987 14.6093 21.7658 14.4218 21.5799L5.82183 12.9999L14.4218 4.41988C14.6093 4.23395 14.7581 4.01275 14.8596 3.76903C14.9612 3.52531 15.0134 3.2639 15.0134 2.99988C15.0134 2.73585 14.9612 2.47444 14.8596 2.23072C14.7581 1.98701 14.6093 1.7658 14.4218 1.57988ZM36.4218 11.5799L26.4218 1.57988C26.2354 1.3934 26.014 1.24548 25.7703 1.14456C25.5267 1.04364 25.2655 0.991694 25.0018 0.991694C24.4692 0.991694 23.9584 1.20327 23.5818 1.57988C23.3954 1.76635 23.2474 1.98774 23.1465 2.23138C23.0456 2.47502 22.9936 2.73616 22.9936 2.99988C22.9936 3.53248 23.2052 4.04327 23.5818 4.41988L32.1818 12.9999L23.5818 21.5799C23.3944 21.7658 23.2456 21.987 23.144 22.2307C23.0425 22.4744 22.9902 22.7359 22.9902 22.9999C22.9902 23.2639 23.0425 23.5253 23.144 23.769C23.2456 24.0128 23.3944 24.2339 23.5818 24.4199C23.7678 24.6073 23.989 24.7561 24.2327 24.8577C24.4764 24.9592 24.7378 25.0115 25.0018 25.0115C25.2659 25.0115 25.5273 24.9592 25.771 24.8577C26.0147 24.7561 26.2359 24.6073 26.4218 24.4199L36.4218 14.4199C36.6093 14.234 36.7581 14.0127 36.8596 13.769C36.9612 13.5253 37.0134 13.2639 37.0134 12.9999C37.0134 12.7359 36.9612 12.4744 36.8596 12.2307C36.7581 11.987 36.6093 11.7658 36.4218 11.5799Z" fill="url(#paint0_linear)"/>
<defs>
<linearGradient id="paint0_linear" x1="19.0018" y1="0.988281" x2="19.0018" y2="25.0115" gradientUnits="userSpaceOnUse">
<stop stop-color="#0066B3"/>
<stop offset="1" stop-color="#00ADEF"/>
</linearGradient>
</defs>
</svg>
