<svg width="36" height="24" viewBox="0 0 36 24" fill="none" xmlns="http://www.w3.org/2000/svg">
<path d="M21.3732 13.5195C20.4734 13.5195 19.6861 14.0874 19.2362 14.8828H5.96438C3.71492 14.8828 1.91534 12.9515 1.91534 10.6793C1.91534 8.4071 3.71492 6.47574 5.96438 6.47574H7.87643C7.87643 6.0213 8.10138 5.56686 8.21385 5.11243C8.32633 4.99882 8.32633 4.7716 8.4388 4.65799C9.33859 2.95385 11.1382 1.81775 13.1627 1.81775C14.9623 1.81775 16.5369 2.72663 17.5491 4.08994C18.1115 3.86272 18.6739 3.6355 19.3487 3.52189C18.1115 1.36331 15.862 0 13.1627 0C10.1259 0 7.53901 1.93136 6.41428 4.65799H5.96438C2.70266 4.65799 0.0032959 7.38462 0.0032959 10.7929C0.0032959 14.2012 2.70266 16.8142 5.96438 16.8142H19.3487C19.6861 17.6095 20.4734 18.1775 21.4857 18.1775C22.7231 18.1775 23.7352 17.155 23.7352 15.7917C23.7352 14.4284 22.7229 13.5195 21.3732 13.5195ZM28.7965 8.8614C27.4468 6.13477 24.635 4.20341 21.4857 4.20341C17.5491 4.20341 14.2874 7.04365 13.5001 10.7928C11.5881 11.02 9.90095 12.0425 8.88869 13.5194H18.6739C19.3487 12.6105 20.3611 12.1561 21.4857 12.1561C23.5102 12.1561 25.0849 13.8602 25.0849 15.9052C25.0849 17.9502 23.3978 19.6543 21.4857 19.6543C20.361 19.6543 19.3487 19.0862 18.6739 18.291H7.76396C8.21385 21.472 10.9132 23.9715 14.0625 23.9715H28.684C32.733 23.9715 35.9948 20.6768 35.9948 16.4732C35.9948 12.2697 32.733 8.97501 28.7965 8.8614Z" fill="#008CDB"/>
</svg>
