<svg width="34" height="34" viewBox="0 0 34 34" fill="none" xmlns="http://www.w3.org/2000/svg">
<path d="M20.3334 10.3333H22C22.4421 10.3333 22.866 10.1577 23.1786 9.8451C23.4911 9.53254 23.6667 9.10861 23.6667 8.66659C23.6667 8.22456 23.4911 7.80064 23.1786 7.48807C22.866 7.17551 22.4421 6.99992 22 6.99992H20.3334C19.8913 6.99992 19.4674 7.17551 19.1549 7.48807C18.8423 7.80064 18.6667 8.22456 18.6667 8.66659C18.6667 9.10861 18.8423 9.53254 19.1549 9.8451C19.4674 10.1577 19.8913 10.3333 20.3334 10.3333ZM20.3334 16.9999H22C22.4421 16.9999 22.866 16.8243 23.1786 16.5118C23.4911 16.1992 23.6667 15.7753 23.6667 15.3333C23.6667 14.8912 23.4911 14.4673 23.1786 14.1547C22.866 13.8422 22.4421 13.6666 22 13.6666H20.3334C19.8913 13.6666 19.4674 13.8422 19.1549 14.1547C18.8423 14.4673 18.6667 14.8912 18.6667 15.3333C18.6667 15.7753 18.8423 16.1992 19.1549 16.5118C19.4674 16.8243 19.8913 16.9999 20.3334 16.9999ZM12 10.3333H13.6667C14.1087 10.3333 14.5327 10.1577 14.8452 9.8451C15.1578 9.53254 15.3334 9.10861 15.3334 8.66659C15.3334 8.22456 15.1578 7.80064 14.8452 7.48807C14.5327 7.17551 14.1087 6.99992 13.6667 6.99992H12C11.558 6.99992 11.1341 7.17551 10.8215 7.48807C10.509 7.80064 10.3334 8.22456 10.3334 8.66659C10.3334 9.10861 10.509 9.53254 10.8215 9.8451C11.1341 10.1577 11.558 10.3333 12 10.3333ZM12 16.9999H13.6667C14.1087 16.9999 14.5327 16.8243 14.8452 16.5118C15.1578 16.1992 15.3334 15.7753 15.3334 15.3333C15.3334 14.8912 15.1578 14.4673 14.8452 14.1547C14.5327 13.8422 14.1087 13.6666 13.6667 13.6666H12C11.558 13.6666 11.1341 13.8422 10.8215 14.1547C10.509 14.4673 10.3334 14.8912 10.3334 15.3333C10.3334 15.7753 10.509 16.1992 10.8215 16.5118C11.1341 16.8243 11.558 16.9999 12 16.9999ZM32 30.3333H30.3334V1.99992C30.3334 1.55789 30.1578 1.13397 29.8452 0.821407C29.5327 0.508847 29.1087 0.333252 28.6667 0.333252H5.33337C4.89135 0.333252 4.46742 0.508847 4.15486 0.821407C3.8423 1.13397 3.66671 1.55789 3.66671 1.99992V30.3333H2.00004C1.55801 30.3333 1.13409 30.5088 0.821529 30.8214C0.508969 31.134 0.333374 31.5579 0.333374 31.9999C0.333374 32.4419 0.508969 32.8659 0.821529 33.1784C1.13409 33.491 1.55801 33.6666 2.00004 33.6666H32C32.4421 33.6666 32.866 33.491 33.1786 33.1784C33.4911 32.8659 33.6667 32.4419 33.6667 31.9999C33.6667 31.5579 33.4911 31.134 33.1786 30.8214C32.866 30.5088 32.4421 30.3333 32 30.3333ZM18.6667 30.3333H15.3334V23.6666H18.6667V30.3333ZM27 30.3333H22V21.9999C22 21.5579 21.8244 21.134 21.5119 20.8214C21.1993 20.5088 20.7754 20.3333 20.3334 20.3333H13.6667C13.2247 20.3333 12.8008 20.5088 12.4882 20.8214C12.1756 21.134 12 21.5579 12 21.9999V30.3333H7.00004V3.66659H27V30.3333Z" fill="url(#paint0_linear)"/>
<defs>
<linearGradient id="paint0_linear" x1="17" y1="0.333252" x2="17" y2="33.6666" gradientUnits="userSpaceOnUse">
<stop stop-color="#0066B3"/>
<stop offset="1" stop-color="#00ADEF"/>
</linearGradient>
</defs>
</svg>
