<svg width="34" height="34" viewBox="0 0 34 34" fill="none" xmlns="http://www.w3.org/2000/svg">
<path d="M12 18.6666H15.3334V21.9999C15.3334 22.4419 15.509 22.8659 15.8215 23.1784C16.1341 23.491 16.558 23.6666 17 23.6666C17.4421 23.6666 17.866 23.491 18.1786 23.1784C18.4911 22.8659 18.6667 22.4419 18.6667 21.9999V18.6666H22C22.4421 18.6666 22.866 18.491 23.1786 18.1784C23.4911 17.8659 23.6667 17.4419 23.6667 16.9999C23.6667 16.5579 23.4911 16.134 23.1786 15.8214C22.866 15.5088 22.4421 15.3333 22 15.3333H18.6667V11.9999C18.6667 11.5579 18.4911 11.134 18.1786 10.8214C17.866 10.5088 17.4421 10.3333 17 10.3333C16.558 10.3333 16.1341 10.5088 15.8215 10.8214C15.509 11.134 15.3334 11.5579 15.3334 11.9999V15.3333H12C11.558 15.3333 11.1341 15.5088 10.8215 15.8214C10.509 16.134 10.3334 16.5579 10.3334 16.9999C10.3334 17.4419 10.509 17.8659 10.8215 18.1784C11.1341 18.491 11.558 18.6666 12 18.6666ZM32 0.333252H2.00004C1.55801 0.333252 1.13409 0.508847 0.821529 0.821407C0.508969 1.13397 0.333374 1.55789 0.333374 1.99992V31.9999C0.333374 32.4419 0.508969 32.8659 0.821529 33.1784C1.13409 33.491 1.55801 33.6666 2.00004 33.6666H32C32.4421 33.6666 32.866 33.491 33.1786 33.1784C33.4911 32.8659 33.6667 32.4419 33.6667 31.9999V1.99992C33.6667 1.55789 33.4911 1.13397 33.1786 0.821407C32.866 0.508847 32.4421 0.333252 32 0.333252ZM30.3334 30.3333H3.66671V3.66659H30.3334V30.3333Z" fill="url(#paint0_linear)"/>
<defs>
<linearGradient id="paint0_linear" x1="17" y1="0.333252" x2="17" y2="33.6666" gradientUnits="userSpaceOnUse">
<stop stop-color="#0066B3"/>
<stop offset="1" stop-color="#00ADEF"/>
</linearGradient>
</defs>
</svg>
