<svg width="34" height="34" viewBox="0 0 34 34" fill="none" xmlns="http://www.w3.org/2000/svg">
<path d="M10.3338 15.3333C10.0042 15.3333 9.68197 15.431 9.40789 15.6141C9.13381 15.7973 8.92019 16.0576 8.79404 16.3621C8.6679 16.6667 8.63489 17.0018 8.6992 17.3251C8.76351 17.6484 8.92224 17.9453 9.15533 18.1784C9.38842 18.4115 9.68539 18.5703 10.0087 18.6346C10.332 18.6989 10.6671 18.6659 10.9716 18.5397C11.2762 18.4136 11.5365 18.2 11.7196 17.9259C11.9028 17.6518 12.0005 17.3296 12.0005 16.9999C12.0005 16.5579 11.8249 16.134 11.5124 15.8214C11.1998 15.5088 10.7759 15.3333 10.3338 15.3333ZM17.0005 15.3333C16.6709 15.3333 16.3486 15.431 16.0746 15.6141C15.8005 15.7973 15.5869 16.0576 15.4607 16.3621C15.3346 16.6667 15.3016 17.0018 15.3659 17.3251C15.4302 17.6484 15.5889 17.9453 15.822 18.1784C16.0551 18.4115 16.3521 18.5703 16.6754 18.6346C16.9987 18.6989 17.3338 18.6659 17.6383 18.5397C17.9429 18.4136 18.2032 18.2 18.3863 17.9259C18.5694 17.6518 18.6672 17.3296 18.6672 16.9999C18.6672 16.5579 18.4916 16.134 18.179 15.8214C17.8665 15.5088 17.4425 15.3333 17.0005 15.3333ZM23.6672 15.3333C23.3375 15.3333 23.0153 15.431 22.7412 15.6141C22.4671 15.7973 22.2535 16.0576 22.1274 16.3621C22.0012 16.6667 21.9682 17.0018 22.0325 17.3251C22.0968 17.6484 22.2556 17.9453 22.4887 18.1784C22.7218 18.4115 23.0187 18.5703 23.342 18.6346C23.6653 18.6989 24.0004 18.6659 24.305 18.5397C24.6095 18.4136 24.8698 18.2 25.053 17.9259C25.2361 17.6518 25.3338 17.3296 25.3338 16.9999C25.3338 16.5579 25.1582 16.134 24.8457 15.8214C24.5331 15.5088 24.1092 15.3333 23.6672 15.3333ZM17.0005 0.333252C14.8118 0.333252 12.6445 0.764348 10.6225 1.60193C8.60036 2.4395 6.76304 3.66716 5.2154 5.21481C2.08979 8.34041 0.333843 12.5796 0.333843 16.9999C0.319272 20.8485 1.65183 24.5808 4.10051 27.5499L0.767176 30.8833C0.535913 31.1176 0.379253 31.4152 0.316962 31.7386C0.254672 32.0619 0.289543 32.3964 0.417176 32.6999C0.555606 32.9998 0.780016 33.2518 1.06192 33.4239C1.34382 33.596 1.67051 33.6805 2.00051 33.6666H17.0005C21.4208 33.6666 25.66 31.9106 28.7856 28.785C31.9112 25.6594 33.6672 21.4202 33.6672 16.9999C33.6672 12.5796 31.9112 8.34041 28.7856 5.21481C25.66 2.0892 21.4208 0.333252 17.0005 0.333252ZM17.0005 30.3333H6.01718L7.56718 28.7833C7.72466 28.6289 7.84994 28.4448 7.93577 28.2417C8.02159 28.0386 8.06626 27.8204 8.06718 27.5999C8.06091 27.1603 7.8812 26.741 7.56718 26.4333C5.38482 24.2533 4.0258 21.3841 3.72166 18.3146C3.41752 15.245 4.18708 12.1649 5.89922 9.59912C7.61136 7.03332 10.1602 5.14052 13.1114 4.24321C16.0626 3.3459 19.2336 3.49959 22.0842 4.67811C24.9348 5.85662 27.2886 7.98704 28.7446 10.7064C30.2006 13.4258 30.6686 16.5658 30.0691 19.5916C29.4695 22.6174 27.8394 25.3417 25.4564 27.3003C23.0735 29.259 20.0851 30.3308 17.0005 30.3333Z" fill="url(#paint0_linear)"/>
<defs>
<linearGradient id="paint0_linear" x1="16.977" y1="0.333252" x2="16.977" y2="33.6681" gradientUnits="userSpaceOnUse">
<stop stop-color="#0066B3"/>
<stop offset="1" stop-color="#00ADEF"/>
</linearGradient>
</defs>
</svg>
