<svg width="40" height="36" viewBox="0 0 40 36" fill="none" xmlns="http://www.w3.org/2000/svg">
<path d="M38.4398 18C39.4354 16.9047 39.991 15.4801 39.9998 14C39.9998 12.4087 39.3677 10.8826 38.2425 9.75736C37.1172 8.63214 35.5911 8 33.9998 8H23.6398C23.9593 7.09635 24.0577 6.12932 23.9267 5.17985C23.7957 4.23039 23.4391 3.32612 22.8868 2.54277C22.3346 1.75941 21.6027 1.11975 20.7524 0.677356C19.9021 0.234958 18.9583 0.00269102 17.9998 0H5.99982C4.40852 0 2.8824 0.632141 1.75718 1.75736C0.631958 2.88258 -0.000183105 4.4087 -0.000183105 6C0.00863812 7.48011 0.564239 8.90473 1.55982 10C0.575907 11.1 0.0319529 12.5241 0.0319529 14C0.0319529 15.4759 0.575907 16.9 1.55982 18C0.575907 19.1 0.0319529 20.5241 0.0319529 22C0.0319529 23.4759 0.575907 24.9 1.55982 26C0.564239 27.0953 0.00863812 28.5199 -0.000183105 30C-0.000183105 31.5913 0.631958 33.1174 1.75718 34.2426C2.8824 35.3679 4.40852 36 5.99982 36H33.9998C35.1553 35.9938 36.2845 35.6541 37.2516 35.0217C38.2187 34.3892 38.9826 33.491 39.4515 32.4349C39.9205 31.3788 40.0744 30.2097 39.895 29.0682C39.7155 27.9267 39.2102 26.8613 38.4398 26C39.4237 24.9 39.9677 23.4759 39.9677 22C39.9677 20.5241 39.4237 19.1 38.4398 18ZM17.9998 32H5.99982C5.46938 32 4.96068 31.7893 4.5856 31.4142C4.21053 31.0391 3.99982 30.5304 3.99982 30C3.99982 29.4696 4.21053 28.9609 4.5856 28.5858C4.96068 28.2107 5.46938 28 5.99982 28H17.9998C18.5303 28 19.039 28.2107 19.414 28.5858C19.7891 28.9609 19.9998 29.4696 19.9998 30C19.9998 30.5304 19.7891 31.0391 19.414 31.4142C19.039 31.7893 18.5303 32 17.9998 32ZM17.9998 24H5.99982C5.46938 24 4.96068 23.7893 4.5856 23.4142C4.21053 23.0391 3.99982 22.5304 3.99982 22C3.99982 21.4696 4.21053 20.9609 4.5856 20.5858C4.96068 20.2107 5.46938 20 5.99982 20H17.9998C18.5303 20 19.039 20.2107 19.414 20.5858C19.7891 20.9609 19.9998 21.4696 19.9998 22C19.9998 22.5304 19.7891 23.0391 19.414 23.4142C19.039 23.7893 18.5303 24 17.9998 24ZM17.9998 16H5.99982C5.46938 16 4.96068 15.7893 4.5856 15.4142C4.21053 15.0391 3.99982 14.5304 3.99982 14C3.99982 13.4696 4.21053 12.9609 4.5856 12.5858C4.96068 12.2107 5.46938 12 5.99982 12H17.9998C18.5303 12 19.039 12.2107 19.414 12.5858C19.7891 12.9609 19.9998 13.4696 19.9998 14C19.9998 14.5304 19.7891 15.0391 19.414 15.4142C19.039 15.7893 18.5303 16 17.9998 16ZM17.9998 8H5.99982C5.46938 8 4.96068 7.78929 4.5856 7.41421C4.21053 7.03914 3.99982 6.53043 3.99982 6C3.99982 5.46957 4.21053 4.96086 4.5856 4.58579C4.96068 4.21071 5.46938 4 5.99982 4H17.9998C18.5303 4 19.039 4.21071 19.414 4.58579C19.7891 4.96086 19.9998 5.46957 19.9998 6C19.9998 6.53043 19.7891 7.03914 19.414 7.41421C19.039 7.78929 18.5303 8 17.9998 8ZM35.3798 31.42C35.2025 31.607 34.9883 31.7551 34.7507 31.855C34.5132 31.9548 34.2575 32.0042 33.9998 32H23.6398C24.1194 30.7098 24.1194 29.2902 23.6398 28H33.9998C34.5303 28 35.039 28.2107 35.414 28.5858C35.7891 28.9609 35.9998 29.4696 35.9998 30C35.9961 30.266 35.9394 30.5287 35.8329 30.7725C35.7265 31.0163 35.5724 31.2364 35.3798 31.42ZM35.3798 23.42C35.2025 23.607 34.9883 23.7551 34.7507 23.855C34.5132 23.9548 34.2575 24.0042 33.9998 24H23.6398C24.1194 22.7098 24.1194 21.2902 23.6398 20H33.9998C34.5303 20 35.039 20.2107 35.414 20.5858C35.7891 20.9609 35.9998 21.4696 35.9998 22C35.9961 22.266 35.9394 22.5287 35.8329 22.7725C35.7265 23.0163 35.5724 23.2364 35.3798 23.42ZM35.3798 15.42C35.2025 15.607 34.9883 15.7551 34.7507 15.855C34.5132 15.9548 34.2575 16.0042 33.9998 16H23.6398C24.1194 14.7098 24.1194 13.2902 23.6398 12H33.9998C34.5303 12 35.039 12.2107 35.414 12.5858C35.7891 12.9609 35.9998 13.4696 35.9998 14C35.9961 14.266 35.9394 14.5287 35.8329 14.7725C35.7265 15.0163 35.5724 15.2364 35.3798 15.42Z" fill="url(#paint0_linear)"/>
<defs>
<linearGradient id="paint0_linear" x1="19.9998" y1="0" x2="19.9998" y2="36" gradientUnits="userSpaceOnUse">
<stop stop-color="#0066B3"/>
<stop offset="1" stop-color="#00ADEF"/>
</linearGradient>
</defs>
</svg>
