<svg width="50" height="26" viewBox="0 0 50 26" fill="none" xmlns="http://www.w3.org/2000/svg">
<path fill-rule="evenodd" clip-rule="evenodd" d="M0.5 0.166748V18.8833H7.51869V0.166748H0.5ZM42.6121 0.166748V18.8833H49.6308V0.166748H42.6121ZM27.076 0.513998L19.3993 6.89299C19.3911 6.90001 19.3891 6.9041 19.381 6.91112C18.4332 7.73576 18.0467 8.35131 18.0467 8.94001C18.0467 9.59327 18.2153 10.105 18.5951 10.4936C18.944 10.8507 19.6089 11.1644 20.7518 11.243L30.9326 5.57687C31.4525 5.28209 32.19 5.47077 32.5045 5.97898L38.9383 16.5436H40.2726V2.50619H35.5934L27.076 0.513998ZM9.85825 2.50631V16.5437H11.6129L16.8463 24.3938C17.3235 25.3256 18.3085 25.911 19.2165 25.902C20.0315 25.8768 20.9023 25.386 21.5561 24.7322L19.2911 20.6745C18.861 19.9922 19.4001 18.9356 20.205 18.8833C20.6371 18.8493 21.0795 19.0777 21.3017 19.4498L24.4483 24.7777C25.0654 25.902 27.0522 25.5875 27.6791 24.5859L23.6032 18.3532C23.1593 17.6797 23.6768 16.6123 24.4805 16.5437C24.909 16.5057 25.3503 16.7265 25.5772 17.092L29.547 23.1596C30.3294 24.1473 32.1853 23.9998 32.9249 22.813L28.2823 15.4287C27.8384 14.7553 28.3559 13.6878 29.1596 13.6192C29.5882 13.5812 30.0294 13.8021 30.2563 14.1676L34.7277 21.2823C35.5934 22.3926 37.9949 21.9776 38.591 20.51L31.0788 8.17245L21.5378 13.473C21.3547 13.5746 21.1439 13.6256 20.9346 13.6192C19.1699 13.5725 17.8022 13.0299 16.9135 12.1205C16.0248 11.211 15.7071 10.0312 15.7072 8.94012C15.7071 7.35927 16.6964 6.13012 17.8639 5.12001C17.87 5.11358 17.8761 5.10773 17.8822 5.10188L20.9895 2.50643L9.85825 2.50631ZM4.00934 14.2041C4.65536 14.2041 5.17916 14.7278 5.17913 15.3739C5.17916 16.02 4.65534 16.5437 4.00934 16.5437C3.36328 16.5437 2.83954 16.02 2.83956 15.3739C2.83957 14.7278 3.36328 14.2041 4.00934 14.2041ZM46.1215 14.2041C46.7675 14.2041 47.2913 14.7278 47.2913 15.3739C47.2913 16.0199 46.7675 16.5438 46.1215 16.5437C45.4754 16.5437 44.9517 16.0199 44.9517 15.3739C44.9517 14.7278 45.4754 14.2041 46.1215 14.2041Z" fill="url(#paint0_linear)"/>
<defs>
<linearGradient id="paint0_linear" x1="25.0654" y1="0.166748" x2="25.0654" y2="25.9021" gradientUnits="userSpaceOnUse">
<stop stop-color="#0066B3"/>
<stop offset="1" stop-color="#00ADEF"/>
</linearGradient>
</defs>
</svg>
