<svg width="40" height="44" viewBox="0 0 40 44" fill="none" xmlns="http://www.w3.org/2000/svg">
<path d="M18 24C17.6044 24 17.2178 24.1173 16.8889 24.3371C16.56 24.5568 16.3036 24.8692 16.1522 25.2346C16.0009 25.6001 15.9613 26.0022 16.0384 26.3902C16.1156 26.7781 16.3061 27.1345 16.5858 27.4142C16.8655 27.6939 17.2219 27.8844 17.6098 27.9616C17.9978 28.0387 18.3999 27.9991 18.7654 27.8478C19.1308 27.6964 19.4432 27.44 19.6629 27.1111C19.8827 26.7822 20 26.3956 20 26C20 25.4696 19.7893 24.9609 19.4142 24.5858C19.0391 24.2107 18.5304 24 18 24ZM10 24C9.60444 24 9.21776 24.1173 8.88886 24.3371C8.55996 24.5568 8.30362 24.8692 8.15224 25.2346C8.00087 25.6001 7.96126 26.0022 8.03843 26.3902C8.1156 26.7781 8.30608 27.1345 8.58579 27.4142C8.86549 27.6939 9.22186 27.8844 9.60982 27.9616C9.99778 28.0387 10.3999 27.9991 10.7654 27.8478C11.1308 27.6964 11.4432 27.44 11.6629 27.1111C11.8827 26.7822 12 26.3956 12 26C12 25.4696 11.7893 24.9609 11.4142 24.5858C11.0391 24.2107 10.5304 24 10 24ZM40 6C40 4.4087 39.3679 2.88258 38.2426 1.75736C37.1174 0.632141 35.5913 0 34 0H6C4.4087 0 2.88258 0.632141 1.75736 1.75736C0.632141 2.88258 0 4.4087 0 6V14C0.00882122 15.4801 0.564422 16.9047 1.56 18C0.564422 19.0953 0.00882122 20.5199 0 22V30C0 31.5913 0.632141 33.1174 1.75736 34.2426C2.88258 35.3679 4.4087 36 6 36H18V40H2C1.46957 40 0.960859 40.2107 0.585786 40.5858C0.210714 40.9609 0 41.4696 0 42C0 42.5304 0.210714 43.0391 0.585786 43.4142C0.960859 43.7893 1.46957 44 2 44H38C38.5304 44 39.0391 43.7893 39.4142 43.4142C39.7893 43.0391 40 42.5304 40 42C40 41.4696 39.7893 40.9609 39.4142 40.5858C39.0391 40.2107 38.5304 40 38 40H22V36H34C35.5913 36 37.1174 35.3679 38.2426 34.2426C39.3679 33.1174 40 31.5913 40 30V22C39.9912 20.5199 39.4356 19.0953 38.44 18C39.4356 16.9047 39.9912 15.4801 40 14V6ZM36 30C36 30.5304 35.7893 31.0391 35.4142 31.4142C35.0391 31.7893 34.5304 32 34 32H6C5.46957 32 4.96086 31.7893 4.58579 31.4142C4.21071 31.0391 4 30.5304 4 30V22C4 21.4696 4.21071 20.9609 4.58579 20.5858C4.96086 20.2107 5.46957 20 6 20H34C34.5304 20 35.0391 20.2107 35.4142 20.5858C35.7893 20.9609 36 21.4696 36 22V30ZM36 14C36 14.5304 35.7893 15.0391 35.4142 15.4142C35.0391 15.7893 34.5304 16 34 16H6C5.46957 16 4.96086 15.7893 4.58579 15.4142C4.21071 15.0391 4 14.5304 4 14V6C4 5.46957 4.21071 4.96086 4.58579 4.58579C4.96086 4.21071 5.46957 4 6 4H34C34.5304 4 35.0391 4.21071 35.4142 4.58579C35.7893 4.96086 36 5.46957 36 6V14ZM18 8C17.6044 8 17.2178 8.1173 16.8889 8.33706C16.56 8.55682 16.3036 8.86918 16.1522 9.23463C16.0009 9.60009 15.9613 10.0022 16.0384 10.3902C16.1156 10.7781 16.3061 11.1345 16.5858 11.4142C16.8655 11.6939 17.2219 11.8844 17.6098 11.9616C17.9978 12.0387 18.3999 11.9991 18.7654 11.8478C19.1308 11.6964 19.4432 11.44 19.6629 11.1111C19.8827 10.7822 20 10.3956 20 10C20 9.46957 19.7893 8.96086 19.4142 8.58579C19.0391 8.21071 18.5304 8 18 8ZM10 8C9.60444 8 9.21776 8.1173 8.88886 8.33706C8.55996 8.55682 8.30362 8.86918 8.15224 9.23463C8.00087 9.60009 7.96126 10.0022 8.03843 10.3902C8.1156 10.7781 8.30608 11.1345 8.58579 11.4142C8.86549 11.6939 9.22186 11.8844 9.60982 11.9616C9.99778 12.0387 10.3999 11.9991 10.7654 11.8478C11.1308 11.6964 11.4432 11.44 11.6629 11.1111C11.8827 10.7822 12 10.3956 12 10C12 9.46957 11.7893 8.96086 11.4142 8.58579C11.0391 8.21071 10.5304 8 10 8Z" fill="url(#paint0_linear)"/>
<defs>
<linearGradient id="paint0_linear" x1="20" y1="0" x2="20" y2="44" gradientUnits="userSpaceOnUse">
<stop stop-color="#0066B3"/>
<stop offset="1" stop-color="#00ADEF"/>
</linearGradient>
</defs>
</svg>
