<svg width="40" height="40" viewBox="0 0 40 40" fill="none" xmlns="http://www.w3.org/2000/svg">
<path d="M4 24.92C4 24.3896 3.78929 23.8809 3.41421 23.5058C3.03914 23.1307 2.53043 22.92 2 22.92C1.46957 22.92 0.960859 23.1307 0.585786 23.5058C0.210714 23.8809 0 24.3896 0 24.92V26.92C0 27.4504 0.210714 27.9591 0.585786 28.3342C0.960859 28.7093 1.46957 28.92 2 28.92H4C4.53043 28.92 5.03914 28.7093 5.41421 28.3342C5.78929 27.9591 6 27.4504 6 26.92C6 26.3896 5.78929 25.8809 5.41421 25.5058C5.03914 25.1307 4.53043 24.92 4 24.92ZM12.36 4H16.56C17.0904 4 17.5991 3.78929 17.9742 3.41421C18.3493 3.03914 18.56 2.53043 18.56 2C18.56 1.46957 18.3493 0.960859 17.9742 0.585786C17.5991 0.210714 17.0904 0 16.56 0H12.36C11.8296 0 11.3209 0.210714 10.9458 0.585786C10.5707 0.960859 10.36 1.46957 10.36 2C10.36 2.53043 10.5707 3.03914 10.9458 3.41421C11.3209 3.78929 11.8296 4 12.36 4ZM24.92 4C24.92 4.53043 25.1307 5.03914 25.5058 5.41421C25.8809 5.78929 26.3896 6 26.92 6C27.4504 6 27.9591 5.78929 28.3342 5.41421C28.7093 5.03914 28.92 4.53043 28.92 4V2C28.92 1.46957 28.7093 0.960859 28.3342 0.585786C27.9591 0.210714 27.4504 0 26.92 0H24.92C24.3896 0 23.8809 0.210714 23.5058 0.585786C23.1307 0.960859 22.92 1.46957 22.92 2C22.92 2.53043 23.1307 3.03914 23.5058 3.41421C23.8809 3.78929 24.3896 4 24.92 4ZM4 0H2C1.46957 0 0.960859 0.210714 0.585786 0.585786C0.210714 0.960859 0 1.46957 0 2V4C0 4.53043 0.210714 5.03914 0.585786 5.41421C0.960859 5.78929 1.46957 6 2 6C2.53043 6 3.03914 5.78929 3.41421 5.41421C3.78929 5.03914 4 4.53043 4 4C4.53043 4 5.03914 3.78929 5.41421 3.41421C5.78929 3.03914 6 2.53043 6 2C6 1.46957 5.78929 0.960859 5.41421 0.585786C5.03914 0.210714 4.53043 0 4 0ZM2 18.56C2.53043 18.56 3.03914 18.3493 3.41421 17.9742C3.78929 17.5991 4 17.0904 4 16.56V12.36C4 11.8296 3.78929 11.3209 3.41421 10.9458C3.03914 10.5707 2.53043 10.36 2 10.36C1.46957 10.36 0.960859 10.5707 0.585786 10.9458C0.210714 11.3209 0 11.8296 0 12.36V16.56C0 17.0904 0.210714 17.5991 0.585786 17.9742C0.960859 18.3493 1.46957 18.56 2 18.56ZM27.64 36H23.44C22.9096 36 22.4009 36.2107 22.0258 36.5858C21.6507 36.9609 21.44 37.4696 21.44 38C21.44 38.5304 21.6507 39.0391 22.0258 39.4142C22.4009 39.7893 22.9096 40 23.44 40H27.64C28.1704 40 28.6791 39.7893 29.0542 39.4142C29.4293 39.0391 29.64 38.5304 29.64 38C29.64 37.4696 29.4293 36.9609 29.0542 36.5858C28.6791 36.2107 28.1704 36 27.64 36ZM38 11.08H36C35.4696 11.08 34.9609 11.2907 34.5858 11.6658C34.2107 12.0409 34 12.5496 34 13.08C34 13.6104 34.2107 14.1191 34.5858 14.4942C34.9609 14.8693 35.4696 15.08 36 15.08C36 15.6104 36.2107 16.1191 36.5858 16.4942C36.9609 16.8693 37.4696 17.08 38 17.08C38.5304 17.08 39.0391 16.8693 39.4142 16.4942C39.7893 16.1191 40 15.6104 40 15.08V13.08C40 12.5496 39.7893 12.0409 39.4142 11.6658C39.0391 11.2907 38.5304 11.08 38 11.08ZM38 21.44C37.4696 21.44 36.9609 21.6507 36.5858 22.0258C36.2107 22.4009 36 22.9096 36 23.44V27.64C36 28.1704 36.2107 28.6791 36.5858 29.0542C36.9609 29.4293 37.4696 29.64 38 29.64C38.5304 29.64 39.0391 29.4293 39.4142 29.0542C39.7893 28.6791 40 28.1704 40 27.64V23.44C40 22.9096 39.7893 22.4009 39.4142 22.0258C39.0391 21.6507 38.5304 21.44 38 21.44ZM28.92 11.08C28.92 10.5496 28.7093 10.0409 28.3342 9.66579C27.9591 9.29071 27.4504 9.08 26.92 9.08C26.3896 9.08 25.8809 9.29071 25.5058 9.66579C25.1307 10.0409 24.92 10.5496 24.92 11.08H13.08C12.5496 11.08 12.0409 11.2907 11.6658 11.6658C11.2907 12.0409 11.08 12.5496 11.08 13.08V24.92C10.5496 24.92 10.0409 25.1307 9.66579 25.5058C9.29071 25.8809 9.08 26.3896 9.08 26.92C9.08 27.4504 9.29071 27.9591 9.66579 28.3342C10.0409 28.7093 10.5496 28.92 11.08 28.92C11.08 29.4504 11.2907 29.9591 11.6658 30.3342C12.0409 30.7093 12.5496 30.92 13.08 30.92C13.6104 30.92 14.1191 30.7093 14.4942 30.3342C14.8693 29.9591 15.08 29.4504 15.08 28.92H26.92C27.1826 28.92 27.4427 28.8683 27.6854 28.7678C27.928 28.6672 28.1485 28.5199 28.3342 28.3342C28.5199 28.1485 28.6672 27.928 28.7678 27.6854C28.8683 27.4427 28.92 27.1826 28.92 26.92V15.08C29.4504 15.08 29.9591 14.8693 30.3342 14.4942C30.7093 14.1191 30.92 13.6104 30.92 13.08C30.92 12.5496 30.7093 12.0409 30.3342 11.6658C29.9591 11.2907 29.4504 11.08 28.92 11.08ZM24.92 24.92H15.08V15.08H24.92V24.92ZM38 34C37.4696 34 36.9609 34.2107 36.5858 34.5858C36.2107 34.9609 36 35.4696 36 36C35.4696 36 34.9609 36.2107 34.5858 36.5858C34.2107 36.9609 34 37.4696 34 38C34 38.5304 34.2107 39.0391 34.5858 39.4142C34.9609 39.7893 35.4696 40 36 40H38C38.5304 40 39.0391 39.7893 39.4142 39.4142C39.7893 39.0391 40 38.5304 40 38V36C40 35.4696 39.7893 34.9609 39.4142 34.5858C39.0391 34.2107 38.5304 34 38 34ZM15.08 36C15.08 35.4696 14.8693 34.9609 14.4942 34.5858C14.1191 34.2107 13.6104 34 13.08 34C12.5496 34 12.0409 34.2107 11.6658 34.5858C11.2907 34.9609 11.08 35.4696 11.08 36V38C11.08 38.5304 11.2907 39.0391 11.6658 39.4142C12.0409 39.7893 12.5496 40 13.08 40H15.08C15.6104 40 16.1191 39.7893 16.4942 39.4142C16.8693 39.0391 17.08 38.5304 17.08 38C17.08 37.4696 16.8693 36.9609 16.4942 36.5858C16.1191 36.2107 15.6104 36 15.08 36Z" fill="url(#paint0_linear)"/>
<defs>
<linearGradient id="paint0_linear" x1="20" y1="0" x2="20" y2="40" gradientUnits="userSpaceOnUse">
<stop stop-color="#0066B3"/>
<stop offset="1" stop-color="#00ADEF"/>
</linearGradient>
</defs>
</svg>
