<svg width="252" height="927" viewBox="0 0 252 927" fill="none" xmlns="http://www.w3.org/2000/svg">
<rect x="223.105" y="391.561" width="403.598" height="0.915188" transform="rotate(-60 223.105 391.561)" fill="#00ADEF"/>
<rect x="251.176" y="383.798" width="381.615" height="0.915188" transform="rotate(-60 251.176 383.798)" fill="#00ADEF"/>
<rect x="251.479" y="383.285" width="384.59" height="0.915188" transform="rotate(30 251.479 383.285)" fill="#00ADEF"/>
<rect x="223.743" y="390.858" width="439.298" height="0.915188" transform="rotate(30 223.743 390.858)" fill="#00ADEF"/>
<rect x="101.767" y="419.345" width="403.598" height="0.915188" transform="rotate(-60 101.767 419.345)" fill="#00ADEF"/>
<rect x="129.838" y="411.582" width="381.615" height="0.915188" transform="rotate(-60 129.838 411.582)" fill="#00ADEF"/>
<rect x="157.581" y="404.38" width="360.277" height="0.915188" transform="rotate(-60 157.581 404.38)" fill="#00ADEF"/>
<rect x="185.491" y="396.896" width="338.616" height="0.915188" transform="rotate(-60 185.491 396.896)" fill="#00ADEF"/>
<rect x="185.943" y="396.112" width="498.293" height="0.915188" transform="rotate(30 185.943 396.112)" fill="#00ADEF"/>
<rect x="158.239" y="403.704" width="565.126" height="0.915188" transform="rotate(30 158.239 403.704)" fill="#00ADEF"/>
<rect x="130.14" y="411.069" width="622.802" height="0.915188" transform="rotate(30 130.14 411.069)" fill="#00ADEF"/>
<rect x="102.405" y="418.642" width="676.374" height="0.915188" transform="rotate(30 102.405 418.642)" fill="#00ADEF"/>
</svg>
