<svg width="26" height="24" viewBox="0 0 26 24" fill="none" xmlns="http://www.w3.org/2000/svg">
<path d="M24.4201 10.5798L14.4201 0.579793C14.2299 0.397711 14.0056 0.254981 13.7601 0.159793C13.2732 -0.0402434 12.727 -0.0402434 12.2401 0.159793C11.9946 0.254981 11.7703 0.397711 11.5801 0.579793L1.58013 10.5798C1.39365 10.7663 1.24573 10.9876 1.14481 11.2313C1.04389 11.4749 0.991943 11.7361 0.991943 11.9998C0.991943 12.5324 1.20352 13.0432 1.58013 13.4198C1.95673 13.7964 2.46752 14.008 3.00013 14.008C3.53273 14.008 4.04352 13.7964 4.42013 13.4198L11.0001 6.81979V21.9998C11.0001 22.5302 11.2108 23.0389 11.5859 23.414C11.961 23.7891 12.4697 23.9998 13.0001 23.9998C13.5306 23.9998 14.0393 23.7891 14.4143 23.414C14.7894 23.0389 15.0001 22.5302 15.0001 21.9998V6.81979L21.5801 13.4198C21.7661 13.6072 21.9873 13.756 22.231 13.8576C22.4747 13.9591 22.7361 14.0114 23.0001 14.0114C23.2641 14.0114 23.5256 13.9591 23.7693 13.8576C24.013 13.756 24.2342 13.6072 24.4201 13.4198C24.6076 13.2339 24.7564 13.0127 24.8579 12.7689C24.9594 12.5252 25.0117 12.2638 25.0117 11.9998C25.0117 11.7358 24.9594 11.4744 24.8579 11.2306C24.7564 10.9869 24.6076 10.7657 24.4201 10.5798Z" fill="url(#paint0_linear)"/>
<defs>
<linearGradient id="paint0_linear" x1="13.0018" y1="0.00976562" x2="13.0018" y2="23.9998" gradientUnits="userSpaceOnUse">
<stop stop-color="#0066B3"/>
<stop offset="1" stop-color="#00ADEF"/>
</linearGradient>
</defs>
</svg>
