<svg width="41" height="41" viewBox="0 0 41 41" fill="none" xmlns="http://www.w3.org/2000/svg">
<path d="M38.3017 2.72002C37.5376 1.94114 36.5687 1.39445 35.5069 1.14317C34.4451 0.891882 33.3339 0.946262 32.3017 1.30002L4.00175 10.76C2.86038 11.1336 1.86312 11.8523 1.14765 12.8169C0.432182 13.7815 0.0337784 14.9444 0.00743828 16.145C-0.0189019 17.3457 0.328121 18.5249 1.0006 19.52C1.67308 20.515 2.63786 21.2767 3.76175 21.7L14.2417 25.7C14.4804 25.7913 14.6977 25.9307 14.88 26.1096C15.0624 26.2886 15.206 26.5032 15.3017 26.74L19.3017 37.24C19.7089 38.348 20.4478 39.3035 21.4177 39.9764C22.3876 40.6492 23.5413 41.0067 24.7217 41H24.8617C26.0638 40.9781 27.2288 40.5807 28.1936 39.8634C29.1584 39.146 29.8746 38.1448 30.2417 37L39.7017 8.66002C40.0458 7.6379 40.097 6.5399 39.8496 5.49019C39.6022 4.44048 39.066 3.48092 38.3017 2.72002ZM36.0017 7.40002L26.4417 35.76C26.3307 36.119 26.1078 36.433 25.8055 36.6561C25.5032 36.8792 25.1375 36.9997 24.7617 37C24.3883 37.0061 24.0217 36.8984 23.7109 36.6912C23.4001 36.484 23.1597 36.1871 23.0217 35.84L19.0217 25.34C18.7318 24.5771 18.2845 23.8836 17.7091 23.3048C17.1337 22.7259 16.443 22.2746 15.6817 21.98L5.18175 17.98C4.82753 17.8502 4.52305 17.6124 4.31131 17.3002C4.09958 16.988 3.99129 16.6171 4.00175 16.24C4.00205 15.8643 4.12258 15.4986 4.3457 15.1963C4.56881 14.894 4.88281 14.671 5.24175 14.56L33.6017 5.10002C33.9273 4.96731 34.2844 4.93176 34.6298 4.99767C34.9752 5.06358 35.2941 5.22811 35.5479 5.47139C35.8018 5.71467 35.9797 6.02628 36.0603 6.36854C36.1408 6.7108 36.1205 7.06907 36.0017 7.40002Z" fill="url(#paint0_linear)"/>
<defs>
<linearGradient id="paint0_linear" x1="20.0049" y1="0.987793" x2="20.0049" y2="41.0001" gradientUnits="userSpaceOnUse">
<stop stop-color="#0066B3"/>
<stop offset="1" stop-color="#00ADEF"/>
</linearGradient>
</defs>
</svg>
